<?xml version="1.0" standalone="no"?>
<!DOCTYPE svg PUBLIC "-//W3C//DTD SVG 20010904//EN"
 "http://www.w3.org/TR/2001/REC-SVG-20010904/DTD/svg10.dtd">
<svg version="1.0" xmlns="http://www.w3.org/2000/svg"
 width="1350.000000pt" height="320.000000pt" viewBox="0 0 1350.000000 320.000000"
 preserveAspectRatio="xMidYMid meet">
<metadata>
Created by potrace 1.16, written by Peter Selinger 2001-2019
</metadata>
<g transform="translate(0.000000,320.000000) scale(0.100000,-0.100000)"
fill="#000000" stroke="none">
<path d="M1295 3095 c-613 -113 -1079 -554 -1223 -1159 -25 -103 -27 -127 -27
-336 0 -209 2 -233 27 -336 137 -575 568 -1006 1142 -1142 102 -25 128 -27
331 -27 248 0 343 15 525 82 215 79 386 189 550 353 163 163 275 337 353 550
67 182 82 277 82 525 0 203 -2 229 -27 331 -136 574 -566 1005 -1138 1141 -90
22 -134 26 -310 29 -151 2 -226 -1 -285 -11z m156 -927 c594 -3 594 -3 651
-26 121 -49 231 -159 280 -280 22 -55 23 -68 23 -332 l0 -275 -32 -68 c-45
-95 -127 -178 -222 -225 l-75 -37 -555 0 -556 0 -56 28 c-67 32 -142 109 -172
175 -22 46 -22 56 -25 605 l-3 559 74 -61 73 -60 595 -3z"/>
<path d="M1113 1615 c-33 -33 -35 -39 -30 -81 6 -54 27 -80 77 -95 50 -15 102
9 125 58 35 72 -20 153 -103 153 -26 0 -43 -9 -69 -35z"/>
<path d="M1483 1615 c-33 -33 -35 -39 -30 -81 6 -54 27 -80 77 -95 50 -15 102
9 125 58 35 72 -20 153 -103 153 -26 0 -43 -9 -69 -35z"/>
<path d="M1853 1615 c-33 -33 -35 -39 -30 -81 6 -54 27 -80 77 -95 50 -15 102
9 125 58 35 72 -20 153 -103 153 -26 0 -43 -9 -69 -35z"/>
<path d="M3670 1625 l0 -887 413 5 c446 5 460 6 576 64 75 37 190 152 223 223
83 178 57 385 -65 517 -52 57 -87 81 -155 109 l-55 22 39 20 c55 28 130 112
162 180 24 51 27 68 27 172 0 107 -2 119 -29 175 -38 77 -134 174 -211 213
-127 64 -135 65 -547 70 l-378 4 0 -887z m750 558 c31 -17 65 -45 84 -71 27
-39 31 -52 31 -112 0 -60 -4 -74 -30 -111 -35 -50 -82 -84 -134 -99 -20 -5
-116 -10 -213 -10 l-178 0 0 215 0 215 194 0 c192 0 194 0 246 -27z m32 -665
c57 -17 121 -78 148 -140 26 -60 24 -151 -3 -205 -24 -46 -76 -93 -127 -117
-40 -18 -69 -21 -267 -24 l-223 -4 0 251 0 251 216 0 c137 0 231 -4 256 -12z"/>
<path d="M5130 1625 l0 -885 145 0 145 0 0 885 0 885 -145 0 -145 0 0 -885z"/>
<path d="M9800 1625 l0 -885 145 0 145 0 0 403 0 403 23 32 c109 147 349 179
470 64 16 -15 41 -49 55 -77 l27 -50 3 -388 3 -387 145 0 145 0 -3 433 c-3
416 -4 434 -26 498 -47 139 -150 250 -280 300 -79 30 -233 37 -322 15 -77 -20
-159 -67 -206 -119 l-34 -37 0 340 0 340 -145 0 -145 0 0 -885z"/>
<path d="M12830 2145 l0 -165 -120 0 -120 0 0 -140 0 -140 120 0 120 0 0 -293
c0 -315 5 -359 54 -456 51 -100 166 -185 284 -210 68 -14 197 -13 242 2 l35
12 -3 75 c-1 41 -5 98 -8 125 l-5 51 -83 -1 c-74 0 -87 3 -131 30 -35 21 -56
45 -74 80 -26 49 -26 53 -29 317 l-4 268 166 0 166 0 0 140 0 140 -165 0 -165
0 0 165 0 165 -140 0 -140 0 0 -165z"/>
<path d="M7582 2000 c-232 -42 -423 -209 -493 -430 -29 -92 -35 -225 -15 -330
45 -239 228 -436 461 -495 88 -22 273 -20 369 5 104 26 193 71 254 125 55 50
97 109 88 124 -4 5 -54 40 -112 77 l-105 67 -47 -46 c-26 -25 -74 -59 -107
-74 -54 -25 -71 -28 -165 -28 -99 0 -109 2 -172 33 -93 46 -157 129 -182 235
l-6 27 464 0 464 0 8 67 c29 276 -143 543 -404 623 -74 23 -225 33 -300 20z
m210 -252 c88 -31 168 -116 184 -196 l7 -32 -312 0 -311 0 10 25 c28 75 79
140 134 174 77 48 198 60 288 29z"/>
<path d="M8944 2001 c-147 -24 -300 -109 -387 -216 -159 -197 -192 -482 -81
-713 51 -106 168 -224 274 -275 117 -57 182 -70 335 -65 107 4 142 9 197 30
86 32 167 81 223 134 47 45 115 141 115 162 0 11 -106 66 -214 109 -36 15 -39
15 -48 -2 -24 -42 -83 -96 -131 -120 -188 -91 -398 -25 -494 156 -26 50 -28
63 -28 164 0 100 3 115 28 166 33 69 99 132 175 167 49 23 70 27 147 27 77 -1
98 -5 147 -29 36 -17 75 -47 102 -78 l44 -51 121 68 121 67 -22 40 c-58 105
-202 208 -337 243 -76 20 -215 27 -287 16z"/>
<path d="M11680 2003 c-250 -38 -442 -230 -496 -494 -35 -173 1 -378 90 -511
81 -122 211 -220 337 -253 73 -20 231 -19 300 1 79 23 164 72 204 116 l35 38
0 -75 0 -75 145 0 145 0 0 615 0 615 -145 0 -145 0 0 -71 0 -71 -51 46 c-104
94 -274 142 -419 119z m285 -302 c72 -32 121 -68 155 -115 l30 -40 0 -181 0
-182 -27 -35 c-90 -115 -251 -170 -393 -134 -164 42 -269 177 -270 347 0 167
74 281 226 345 51 21 71 24 144 21 60 -2 100 -10 135 -26z"/>
<path d="M5692 1563 c5 -454 6 -469 66 -591 34 -72 122 -161 191 -196 104 -53
254 -70 366 -41 88 23 143 53 203 108 l52 50 0 -77 0 -76 145 0 145 0 0 620 0
620 -145 0 -145 0 0 -398 0 -399 -27 -35 c-72 -93 -186 -144 -302 -136 -109 8
-187 62 -233 163 -23 49 -23 58 -26 428 l-3 377 -145 0 -146 0 4 -417z"/>
</g>
</svg>
